HIERARCHY
ROOT Hips
{
    OFFSET 0.000000 0.000000 0.000000
    CHANNELS 6 Xposition Yposition Zposition Zrotation Xrotation Yrotation
    JOINT Spine
    {
        OFFSET -0.000000 14.517291 0.000000
        CHANNELS 3 Zrotation Xrotation Yrotation
        JOINT Spine1
        {
            OFFSET -0.000000 37.558300 0.000000
            CHANNELS 3 Zrotation Xrotation Yrotation
            JOINT Neck
            {
                OFFSET -0.000000 37.404057 3.400369
                CHANNELS 3 Zrotation Xrotation Yrotation
                JOINT Head
                {
                    OFFSET -0.000000 24.785618 -3.540803
                    CHANNELS 3 Zrotation Xrotation Yrotation
                    End Site
                    {
                        OFFSET -0.000000 35.408028 0.000000
                    }
                }
            }
            JOINT LeftShoulder
            {
                OFFSET 6.992933 33.973492 -0.192664
                CHANNELS 3 Zrotation Xrotation Yrotation
                JOINT LeftArm
                {
                    OFFSET 21.527611 0.000000 0.000000
                    CHANNELS 3 Zrotation Xrotation Yrotation
                    JOINT LeftForeArm
                    {
                        OFFSET 56.353916 0.000000 0.000000
                        CHANNELS 3 Zrotation Xrotation Yrotation
                        JOINT LeftHand
                        {
                            OFFSET 47.774071 0.000000 0.000000
                            CHANNELS 3 Zrotation Xrotation Yrotation
                            End Site
                            {
                                OFFSET 26.556021 0.000000 0.000000
                            }
                        }
                    }
                }
            }
            JOINT RightShoulder
            {
                OFFSET -7.065357 33.973492 -0.192664
                CHANNELS 3 Zrotation Xrotation Yrotation
                JOINT RightArm
                {
                    OFFSET -21.527611 0.000000 0.000000
                    CHANNELS 3 Zrotation Xrotation Yrotation
                    JOINT RightForeArm
                    {
                        OFFSET -56.353916 0.000000 0.000000
                        CHANNELS 3 Zrotation Xrotation Yrotation
                        JOINT RightHand
                        {
                            OFFSET -47.774071 0.000000 0.000000
                            CHANNELS 3 Zrotation Xrotation Yrotation
                            End Site
                            {
                                OFFSET -26.556021 0.000000 0.000000
                            }
                        }
                    }
                }
            }
        }
    }
    JOINT LeftUpLeg
    {
        OFFSET 17.704014 0.000000 0.000000
        CHANNELS 3 Zrotation Xrotation Yrotation
        JOINT LeftLeg
        {
            OFFSET -0.000000 -81.181816 0.000000
            CHANNELS 3 Zrotation Xrotation Yrotation
            JOINT LeftFoot
            {
                OFFSET -0.000000 -62.821102 0.000000
                CHANNELS 3 Zrotation Xrotation Yrotation
                JOINT LeftToeBase
                {
                    OFFSET -0.000000 -11.507608 26.556021
                    CHANNELS 3 Zrotation Xrotation Yrotation
                    End Site
                    {
                        OFFSET -0.000000 0.000000 7.081605
                    }
                }
            }
        }
    }
    JOINT RightUpLeg
    {
        OFFSET -17.704014 0.000000 0.000000
        CHANNELS 3 Zrotation Xrotation Yrotation
        JOINT RightLeg
        {
            OFFSET -0.000000 -81.181816 0.000000
            CHANNELS 3 Zrotation Xrotation Yrotation
            JOINT RightFoot
            {
                OFFSET -0.000000 -62.821102 0.000000
                CHANNELS 3 Zrotation Xrotation Yrotation
                JOINT RightToeBase
                {
                    OFFSET -0.000000 -11.507608 26.556021
                    CHANNELS 3 Zrotation Xrotation Yrotation
                    End Site
                    {
                        OFFSET -0.000000 0.000000 7.081605
                    }
                }
            }
        }
    }
}
MOTION
Frames:    11
Frame Time:    0.008333
39.535183    157.929962    -106.369553    -1.101970    -0.726704    21.244917    -1.722387    -3.060583    -0.453108    -7.620592    1.518719    -0.035459    7.842795    6.698834    -7.210841    11.613679    -6.571564    -5.898206    10.150807    -0.613549    -16.314068    -17.636854    1.532993    -45.852749    -25.406149    2.811617    -126.364822    -31.370201    -38.047050    -37.467014    -8.484127    5.084511    -6.556011    18.041086    24.954462    10.111939    16.619507    14.489693    2.775265    1.346094    14.383523    24.784000    6.939984    -1.116309    3.001618    -12.304639    29.023117    -14.893061    10.419931    -24.721325    45.789890    0.000000    0.000000    0.000000    -14.986348    -28.847841    -6.935627    11.595745    26.913429    -13.235109    1.333925    15.153966    -12.165529    0.000000    0.000000    0.000000    
39.514587    157.947662    -106.362930    -1.092954    -0.728217    21.256969    -1.720069    -3.067043    -0.467213    -7.627090    1.527449    -0.039690    7.862939    6.706697    -7.206385    11.580738    -6.570862    -5.901411    10.117557    -0.596704    -16.295483    -17.758453    1.410489    -45.911720    -25.367392    2.440835    -126.129990    -30.464125    -38.382523    -36.992077    -8.478129    5.093301    -6.573084    18.069796    24.951033    10.114157    16.625162    14.485904    2.768239    1.311252    14.373423    24.806883    6.932523    -1.094158    2.972756    -12.295187    28.971285    -14.915192    10.404286    -24.687851    45.815285    0.000000    0.000000    0.000000    -14.987247    -28.834827    -6.942203    11.587655    26.898750    -13.224090    1.339610    15.170900    -12.171269    0.000000    0.000000    0.000000    
39.492451    157.966263    -106.362549    -1.091925    -0.725094    21.265171    -1.707697    -3.079432    -0.475033    -7.629521    1.544580    -0.040947    7.827487    6.672474    -7.199259    11.624423    -6.530317    -5.888569    10.069459    -0.590232    -16.280905    -17.915148    1.277882    -45.908154    -25.384348    2.024844    -125.886780    -30.573765    -38.432156    -37.077579    -8.467980    5.112455    -6.613941    18.075960    24.958797    10.128981    16.609346    14.466820    2.797837    1.299526    14.348161    24.819336    6.932133    -1.080314    2.940419    -12.289886    28.917494    -14.902208    10.382017    -24.661215    45.808815    0.000000    0.000000    0.000000    -14.979442    -28.831816    -6.938891    11.574862    26.880527    -13.206982    1.365920    15.197203    -12.197364    0.000000    0.000000    0.000000    
39.468567    157.988113    -106.362488    -1.090126    -0.722407    21.276358    -1.691032    -3.084331    -0.487187    -7.644047    1.549932    -0.044770    7.860126    6.657818    -7.196980    11.563588    -6.515650    -5.903693    10.029302    -0.574441    -16.253254    -18.106058    1.088460    -45.917072    -25.396820    1.593497    -125.591713    -30.633026    -38.464962    -37.090542    -8.459806    5.123914    -6.642024    18.090496    24.935513    10.136863    16.621264    14.493766    2.800588    1.280254    14.370460    24.829901    6.927917    -1.063338    2.917570    -12.271142    28.858053    -14.899764    10.346744    -24.633327    45.798367    0.000000    0.000000    0.000000    -14.972618    -28.829914    -6.919140    11.574351    26.864155    -13.220949    1.360546    15.229136    -12.207586    0.000000    0.000000    0.000000    
39.444698    158.008514    -106.359207    -1.090740    -0.716588    21.292286    -1.675684    -3.097699    -0.505751    -7.654242    1.554370    -0.050400    7.868651    6.654649    -7.191674    11.537426    -6.501167    -5.905774    9.975945    -0.556054    -16.227869    -18.294106    0.894442    -45.920582    -25.339615    1.037071    -125.258743    -30.817108    -38.365597    -37.193851    -8.445214    5.125576    -6.651428    18.102116    24.925297    10.118702    16.625620    14.513146    2.815000    1.306875    14.393175    24.812683    6.926497    -1.047317    2.903640    -12.250247    28.792992    -14.898689    10.313016    -24.611238    45.784042    0.000000    0.000000    0.000000    -14.967845    -28.828369    -6.934900    11.557759    26.855480    -13.205958    1.380887    15.250842    -12.225699    0.000000    0.000000    0.000000    
39.421509    158.031830    -106.359741    -1.088461    -0.712059    21.303944    -1.657517    -3.098216    -0.517582    -7.670753    1.543044    -0.055144    7.887842    6.686150    -7.191267    11.507912    -6.533270    -5.907521    9.921711    -0.539697    -16.201363    -18.486938    0.714816    -45.916496    -25.274557    0.401801    -124.892792    -31.350075    -38.175064    -37.340420    -8.430512    5.150503    -6.680152    18.096746    24.896057    10.130861    16.645971    14.523583    2.823571    1.329658    14.406359    24.778917    6.926608    -1.031123    2.884127    -12.239390    28.731928    -14.903456    10.283341    -24.575611    45.775925    0.000000    0.000000    0.000000    -14.961511    -28.827208    -6.931456    11.543530    26.841772    -13.222342    1.372905    15.287949    -12.206596    0.000000    0.000000    0.000000    
39.395149    158.050385    -106.355759    -1.088567    -0.708816    21.320946    -1.636601    -3.104332    -0.531988    -7.700446    1.538687    -0.060073    7.936849    6.712579    -7.194729    11.449493    -6.560719    -5.922545    9.877410    -0.511814    -16.171314    -18.686739    0.485408    -45.950596    -25.271763    -0.245643    -124.502556    -31.399776    -38.262886    -37.383999    -8.404058    5.147140    -6.694038    18.106096    24.927250    10.106060    16.633335    14.509503    2.850214    1.403660    14.403942    24.730198    6.925851    -1.013214    2.890385    -12.202896    28.674673    -14.911071    10.250199    -24.553823    45.732941    0.000000    0.000000    0.000000    -14.956480    -28.817331    -6.913410    11.550189    26.818190    -13.235971    1.391188    15.300967    -12.222517    0.000000    0.000000    0.000000    
39.368225    158.069489    -106.349442    -1.083350    -0.713046    21.336279    -1.628288    -3.096690    -0.543882    -7.708004    1.522919    -0.064952    7.955310    6.727777    -7.198279    11.421988    -6.561666    -5.932199    9.813462    -0.499510    -16.138981    -18.920307    0.217350    -45.974350    -25.238628    -0.900637    -124.060944    -31.406437    -38.286057    -37.355061    -8.392137    5.175802    -6.711539    18.108177    24.935345    10.096017    16.625528    14.506624    2.866048    1.437961    14.405975    24.706133    6.928031    -0.987504    2.871471    -12.189896    28.615246    -14.938089    10.233010    -24.518248    45.746147    0.000000    0.000000    0.000000    -14.945186    -28.803432    -6.917542    11.531266    26.807062    -13.222904    1.385661    15.312846    -12.230028    0.000000    0.000000    0.000000    
39.342205    158.083435    -106.342438    -1.075889    -0.711362    21.357872    -1.618107    -3.095517    -0.559115    -7.727986    1.511233    -0.070576    8.000875    6.752474    -7.195624    11.357124    -6.587614    -5.942083    9.753577    -0.484190    -16.106037    -19.179123    -0.124749    -45.994816    -25.253166    -1.484791    -123.501305    -31.548878    -38.164989    -37.467571    -8.366496    5.181838    -6.732520    18.101997    24.928705    10.082502    16.630575    14.515243    2.864774    1.452490    14.417506    24.688753    6.924931    -0.970024    2.852342    -12.174017    28.563263    -14.949253    10.205213    -24.499256    45.743614    0.000000    0.000000    0.000000    -14.942420    -28.790569    -6.918235    11.518644    26.793694    -13.219781    1.396651    15.314142    -12.251231    0.000000    0.000000    0.000000    
39.315830    158.099823    -106.329300    -1.064375    -0.715189    21.379217    -1.608668    -3.096546    -0.574085    -7.748937    1.508356    -0.075642    8.021118    6.780781    -7.204944    11.333424    -6.614974    -5.953629    9.691425    -0.472725    -16.050476    -19.442514    -0.456588    -46.047447    -25.345209    -2.101635    -122.934372    -31.580208    -38.267246    -37.503326    -8.354823    5.185031    -6.741728    18.116627    24.946156    10.051503    16.624893    14.479200    2.858633    1.413517    14.374938    24.750652    6.923688    -0.936695    2.815734    -12.168613    28.493675    -14.960068    10.189712    -24.463718    45.737473    0.000000    0.000000    0.000000    -14.937104    -28.768724    -6.916699    11.504331    26.778765    -13.205780    1.389006    15.315259    -12.270535    0.000000    0.000000    0.000000    
39.284195    158.109467    -106.318535    -1.056518    -0.711128    21.399986    -1.605636    -3.097782    -0.586079    -7.768079    1.487494    -0.080789    8.041506    6.833133    -7.209213    11.334741    -6.660262    -5.951419    9.633859    -0.455800    -15.998993    -19.628777    -0.656442    -46.112125    -25.363688    -2.978815    -122.400818    -31.694759    -38.444874    -37.578976    -8.328856    5.211943    -6.762176    18.108389    24.950405    10.046487    16.645416    14.537412    2.815464    1.293670    14.413990    24.808388    6.926114    -0.916169    2.787972    -12.164207    28.434895    -14.990604    10.185556    -24.440033    45.758331    0.000000    0.000000    0.000000    -14.931645    -28.758333    -6.894380    11.505489    26.764015    -13.207553    1.383598    15.303294    -12.302493    0.000000    0.000000    0.000000    
